<?xml version="1.0" encoding="utf-8"?><svg xml:space="preserve" viewBox="0 0 100 100" y="0" x="0" xmlns="http://www.w3.org/2000/svg" id="圖層_1" version="1.1" width="47px" height="47px" xmlns:xlink="http://www.w3.org/1999/xlink" style="width:100%;height:100%;background-size:initial;background-repeat-y:initial;background-repeat-x:initial;background-position-y:initial;background-position-x:initial;background-origin:initial;background-image:initial;background-color:rgb(255, 255, 255);background-clip:initial;background-attachment:initial;animation-play-state:paused" ><g class="ldl-scale" style="transform-origin:50% 50%;transform:rotate(0deg) scale(0.8, 0.8);animation-play-state:paused" ><path stroke-miterlimit="10" stroke-width="3.5" stroke="#333" stroke-linecap="round" fill="#f8b26a" d="M78.4 89H21.6c-4.6 0-8.4-3.7-8.4-8.4V19.4c0-4.6 3.7-8.4 8.4-8.4h56.8c4.6 0 8.4 3.7 8.4 8.4v61.3c0 4.6-3.8 8.3-8.4 8.3z" style="stroke:rgb(51, 51, 51);fill:rgb(248, 178, 106);animation-play-state:paused" ></path>
<path d="M29.3 11h41.3v29.1H29.3z" stroke-miterlimit="10" stroke-linecap="round" stroke-width="3.5" stroke="#333" fill="#e0e0e0" style="stroke:rgb(51, 51, 51);fill:rgb(224, 224, 224);animation-play-state:paused" ></path>
<path d="M53.3 19.5h7.4v12.2h-7.4z" stroke-miterlimit="10" stroke-width="3.5" stroke="#333" stroke-linecap="round" fill="#333" style="stroke:rgb(51, 51, 51);fill:rgb(51, 51, 51);animation-play-state:paused" ></path>
<circle stroke-miterlimit="10" stroke-linecap="round" stroke-width="3.5" stroke="#333" fill="#e0e0e0" r="12.4" cy="63.9" cx="50" style="stroke:rgb(51, 51, 51);fill:rgb(224, 224, 224);animation-play-state:paused" ></circle>
<path stroke-miterlimit="10" stroke-linecap="round" stroke-width="3.5" stroke="#000" opacity=".2" d="M78.4 11H67.1L47.3 89h31.1c4.6 0 8.4-3.7 8.4-8.4V19.4c0-4.7-3.8-8.4-8.4-8.4z" style="stroke:rgb(0, 0, 0);animation-play-state:paused" ></path>
<path d="M21.1 36.7v1.1" stroke-miterlimit="10" stroke-width="3.5" stroke="#fff" stroke-linecap="round" fill="none" style="stroke:rgb(255, 255, 255);animation-play-state:paused" ></path>
<path d="M21.1 19.5v11.6" stroke-miterlimit="10" stroke-width="3.5" stroke="#fff" stroke-linecap="round" fill="none" style="stroke:rgb(255, 255, 255);animation-play-state:paused" ></path>
<metadata xmlns:d="https://loading.io/stock/" style="animation-play-state:paused" ><d:name style="animation-play-state:paused" >save</d:name>


<d:tags style="animation-play-state:paused" >save,floppy disk,dump,backup,store,storage,write</d:tags>


<d:license style="animation-play-state:paused" >by</d:license>


<d:slug style="animation-play-state:paused" >kytqtb</d:slug></metadata></g><!-- generated by https://loading.io/ --></svg>